<?xml version="1.0" standalone="no"?>
<!DOCTYPE svg PUBLIC "-//W3C//DTD SVG 20010904//EN"
 "http://www.w3.org/TR/2001/REC-SVG-20010904/DTD/svg10.dtd">
<svg version="1.0" xmlns="http://www.w3.org/2000/svg"
 width="480.000000pt" height="480.000000pt" viewBox="0 0 480.000000 480.000000"
 preserveAspectRatio="xMidYMid meet">
<metadata>
Created by potrace 1.14, written by Peter Selinger 2001-2017
</metadata>
<g transform="translate(0.000000,480.000000) scale(0.100000,-0.100000)"
fill="#000000" stroke="none">
<path d="M1595 4200 c-11 -4 -85 -10 -165 -13 -80 -4 -178 -13 -218 -21 -75
-16 -238 -76 -282 -106 -14 -9 -58 -38 -98 -65 -40 -26 -106 -78 -146 -116
l-73 -68 3 -158 c2 -164 10 -407 20 -648 13 -290 7 -730 -10 -821 -2 -10 -7
-46 -10 -79 -4 -33 -13 -112 -21 -175 -25 -197 -26 -211 -29 -375 -4 -187 6
-285 40 -412 46 -173 136 -300 282 -399 63 -42 199 -100 247 -105 2 0 19 -5
37 -10 73 -22 259 -36 433 -34 99 2 194 5 210 8 17 3 70 8 119 12 50 4 97 8
106 10 9 2 48 6 86 10 38 3 83 8 99 10 204 25 695 24 820 -1 39 -8 222 -18
335 -18 249 0 414 30 565 105 288 142 432 405 437 799 1 78 -11 310 -17 320
-1 3 -6 43 -10 90 -4 47 -9 87 -10 90 -2 3 -7 48 -11 100 -15 168 -8 505 12
660 12 94 15 151 18 350 4 218 -3 291 -39 434 -31 118 -108 262 -189 349 -126
135 -330 232 -567 272 -78 12 -409 14 -464 2 -11 -3 -58 -8 -105 -12 -47 -4
-98 -8 -115 -10 -16 -2 -66 -7 -110 -10 -44 -4 -96 -9 -115 -11 -70 -9 -597
-12 -670 -4 -129 14 -173 19 -255 26 -44 4 -89 12 -100 19 -12 8 -28 10 -40 5z"/>
</g>
</svg>
